<svg data-name="Layer 1" xmlns="http://www.w3.org/2000/svg" viewBox="0 0 21 22.04" width="21px"><title>calendar</title> <style type="text/css">
	.st4{fill:#81b3d2;} </style> <path class="st4" d="M19.25 2.04h-2.84V.69a.66.66 0 1 0-1.31 0v1.35h-3.94V.69a.66.66 0 1 0-1.31 0v1.35H5.91V.69a.66.66 0 1 0-1.31 0v1.35H1.75A1.8 1.8 0 0 0 0 3.9v16.3a1.79 1.79 0 0 0 1.75 1.84h17.5A1.79 1.79 0 0 0 21 20.2V3.9a1.79 1.79 0 0 0-1.75-1.86zm.44 18.14a.45.45 0 0 1-.44.46H1.75a.45.45 0 0 1-.44-.46V3.9a.45.45 0 0 1 .44-.46h2.84v1.38a.66.66 0 1 0 1.31 0V3.44h3.95v1.38a.66.66 0 1 0 1.31 0V3.44h3.94v1.38a.66.66 0 1 0 1.31 0V3.44h2.84a.45.45 0 0 1 .44.46v16.3z"/><path class="st4" d="M4.59 8.27h2.63v2.07H4.59zM4.59 11.71h2.63v2.07H4.59zM4.59 15.15h2.63v2.07H4.59zM9.19 15.15h2.63v2.07H9.19zM9.19 11.71h2.63v2.07H9.19zM9.19 8.27h2.63v2.07H9.19zM13.78 15.15h2.63v2.07h-2.63zM13.78 11.71h2.63v2.07h-2.63zM13.78 8.27h2.63v2.07h-2.63z"/></svg>