<svg id="Layer_1" data-name="Layer 1" xmlns="http://www.w3.org/2000/svg" viewBox="0 0 63.98 76"><defs><style>.cls-1{fill:#81b3d2;}</style></defs><title>icon-gift</title><path class="cls-1" d="M61.1 22.5H36.31c13.82-6.9 14.92-11.25 14.41-13.68-1.16-4-5.69-7-10-5.41-5.57 2.09-7.14 10.39-8.65 16.39-1.92-6.07-3.78-13.8-8.13-17.74a7.31 7.31 0 0 0-5.76-2c-4 .36-9.8 5.38-7.46 11C13 16.39 20.4 19.79 25.29 22.5H2.88A2.88 2.88 0 0 0 0 25.37v11.32a2.88 2.88 0 0 0 2.88 2.87h.27V76H61V39.56h.1a2.88 2.88 0 0 0 2.9-2.87V25.37a2.88 2.88 0 0 0-2.9-2.87zM42.41 5.94c2.1-.31 5 1.3 5.26 3.21.39 2.76-3.4 5.26-5.09 6.42-2.52 1.74-4.93 2.64-7.29 4.06.89-3.69 2.55-13.01 7.12-13.69zm-22.88 10c-2.23-1.48-6.54-4.43-6.44-7.77.11-3.6 5.74-6.57 8.81-3.89 3.86 3.37 5.71 11.1 7.12 16.56a69.55 69.55 0 0 1-9.49-4.93zM25.5 73H6.14V39.56H25.5V73zm0-36.5H3v-11h22.5zm10.16 0V73h-7.17V25.54h7.17zM58 73H38.64V39.56H58zm2.92-36.5H38.64v-11h22.29z"/></svg>