<svg id="Layer_1" data-name="Layer 1" xmlns="http://www.w3.org/2000/svg" viewBox="0 0 74.7 72"><defs><style>.cls-1{fill:#81b3d2;}</style></defs><title>icon-house</title><path class="cls-1" d="M29.51 65h16V41.21h-16zm2.94-20.9h10.12v18H32.44z"/><path class="cls-1" d="M72.62 39.25l2.08-2.07-9.91-9.86V0H50.98v13.57L37.35 0 0 37.19l2.08 2.07 7.83-7.8v37.62H5.97V72h63.88v-2.92h-5.06V31.46zM61.85 69.08h-49V28.53l24.5-24.38 24.5 24.38zm0-44.68l-7.94-7.9V2.92h7.94z"/><path class="cls-1" d="M29.76 27.08a7.75 7.75 0 1 0 7.75-7.71 7.73 7.73 0 0 0-7.75 7.71zm7.75-4.94a4.95 4.95 0 1 1-5 4.94 5 5 0 0 1 5-4.94zM16.91 41.21h3v3.92h-3zM22.85 41.21h3v3.92h-3zM16.91 47.18h3v3.92h-3zM22.85 47.18h3v3.92h-3zM48.85 41.21h3v3.92h-3zM54.78 41.21h3v3.92h-3zM48.85 47.18h3v3.92h-3zM54.78 47.18h3v3.92h-3z"/></svg>