<?xml version="1.0" encoding="utf-8"?>
<!-- Generator: Adobe Illustrator 21.0.0, SVG Export Plug-In . SVG Version: 6.00 Build 0)  -->
<svg version="1.1" id="Layer_1" xmlns="http://www.w3.org/2000/svg" xmlns:xlink="http://www.w3.org/1999/xlink" x="0px" y="0px"
	 viewBox="0 0 113.5 38.7" style="enable-background:new 0 0 113.5 38.7;" xml:space="preserve">
<style type="text/css">
	.st0{fill:#333333;}
</style>
<title>logo_name</title>
<path class="st0" d="M46.8,28.2c0.2,0,0.4,0,0.6-0.1v1.4c-0.4,0.1-0.8,0.2-1.2,0.2c-0.7,0.1-1.4-0.3-1.8-1c-0.9,0.8-2.1,1.2-3.3,1.1
	c-1.6,0-3.1-0.9-3.1-2.7c0-2.2,2.1-2.9,3.9-2.9c0.8,0,1.5,0.1,2.3,0.3v-0.3c0-1.1-0.8-1.9-2.3-1.9c-1.1,0-2.2,0.2-3.2,0.7v-1.8
	c1.1-0.4,2.2-0.6,3.3-0.6c2.5,0,4,1.2,4,3.8v3.1c0,0.3,0.2,0.6,0.5,0.6L46.8,28.2z M40.1,27c0.1,0.8,0.7,1.4,1.5,1.3h0.1
	c0.9,0,1.9-0.3,2.5-1v-1.5c-0.6-0.1-1.3-0.2-1.9-0.2C41.3,25.6,40.1,25.9,40.1,27L40.1,27z M53.1,20.6c0.9,0,1.9,0.2,2.7,0.7v1.8
	c-0.7-0.5-1.6-0.7-2.4-0.7c-1.6-0.1-3,1-3.1,2.6c-0.1,1.6,1,3,2.6,3.1c0.2,0,0.3,0,0.5,0c0.9,0,1.8-0.2,2.5-0.7v1.8
	C55,29.6,54,29.8,53,29.8c-2.4,0.2-4.5-1.7-4.7-4.1c0,0,0,0,0,0v-0.4c-0.1-2.5,1.9-4.6,4.4-4.7H53.1z M65.8,28.2
	c0.2,0,0.4,0,0.6-0.1v1.4c-0.4,0.1-0.8,0.2-1.2,0.2c-0.7,0.1-1.4-0.3-1.8-1c-0.9,0.8-2.1,1.2-3.3,1.1c-1.6,0-3.1-0.9-3.1-2.7
	c0-2.2,2.1-2.9,3.9-2.9c0.8,0,1.5,0.1,2.3,0.3v-0.3c0-1.1-0.8-1.9-2.3-1.9c-1.1,0-2.2,0.2-3.2,0.7v-1.8c1.1-0.4,2.2-0.6,3.3-0.6
	c2.5,0,4,1.2,4,3.8v3.1c0,0.3,0.2,0.6,0.5,0.6L65.8,28.2z M59.1,27c0.1,0.8,0.7,1.4,1.5,1.3h0.1c0.9,0,1.9-0.3,2.5-1v-1.5
	c-0.6-0.1-1.3-0.2-1.9-0.2C60.2,25.6,59.1,25.9,59.1,27L59.1,27z M76.7,16.8v12.8h-1.8v-1.4c-0.8,1-2,1.7-3.3,1.6
	c-2.5-0.2-4.5-2.4-4.3-4.9c0.2-2.3,2-4.2,4.3-4.3c1.2,0,2.4,0.5,3.2,1.4v-5.1L76.7,16.8L76.7,16.8z M71.9,22.3
	c-1.6,0-2.9,1.3-2.9,2.9c0,1.6,1.3,2.9,2.9,2.9c1.2,0,2.3-0.7,2.8-1.8v-2.1C74.2,23,73.1,22.3,71.9,22.3z M83,20.6
	c3.5,0,4.7,2.8,4.1,5.3h-6.6c0.2,1.6,1.8,2.2,3.3,2.2c1,0,1.9-0.2,2.8-0.6v1.7c-1,0.4-2.1,0.6-3.1,0.6c-2.7,0-5-1.5-5-4.6
	c-0.1-2.4,1.7-4.5,4.2-4.6c0,0,0,0,0,0L83,20.6z M83.1,22.2c-1.3-0.1-2.5,0.9-2.6,2.2c0,0,0,0,0,0v0.1h4.8c0.1-1.1-0.7-2.1-1.8-2.3
	C83.4,22.2,83.2,22.2,83.1,22.2z M89.1,29.6v-8.8h1.7v1.1c0.7-0.8,1.8-1.3,2.9-1.3c1.1-0.1,2.1,0.5,2.7,1.4c0.8-0.9,1.9-1.4,3.1-1.4
	c1.8-0.1,3.3,1.3,3.3,3.1c0,0.1,0,0.3,0,0.4v5.5h-2v-5.4c0.1-0.9-0.6-1.7-1.5-1.8h-0.2c-0.8,0.1-1.6,0.5-2.1,1.2v6.1h-2v-5.4
	c0.1-0.9-0.6-1.7-1.5-1.8h-0.2c-0.9,0.1-1.8,0.6-2.3,1.4v5.9L89.1,29.6L89.1,29.6z M111.5,20.8h2l-4.1,9.9c-1,2.3-2.2,3-3.5,3
	c-0.4,0-0.8-0.1-1.2-0.2V32c0.3,0.1,0.6,0.1,0.9,0.1c1,0,1.7-0.7,2.2-2l0.2-0.4l-4.2-8.8h2.1l3,6.6L111.5,20.8z M40.7,1.5v5
	c0.7-0.8,1.8-1.2,2.8-1.2c1.9-0.1,3.5,1.3,3.6,3.2c0,0.1,0,0.2,0,0.4v5.4h-2V9.1c0.1-1-0.6-2-1.7-2.1c0,0,0,0,0,0h-0.3
	c-1,0.1-1.9,0.6-2.4,1.5v5.8h-2V1.5H40.7z M52.4,2.4v3.1h3.2v1.7h-3.2v4c0,1.1,0.5,1.5,1.7,1.5c0.6,0,1.2-0.1,1.8-0.4v1.7
	c-0.8,0.3-1.6,0.4-2.3,0.4c-1.5,0.2-2.8-0.9-3-2.3c0-0.2,0-0.4,0-0.5V7.2h-1.6V5.5h1.6V2.9L52.4,2.4z M58.1,14.3V5.5h1.7v1.1
	c0.7-0.8,1.8-1.3,2.9-1.3c1.1-0.1,2.1,0.5,2.7,1.4c0.8-0.9,1.9-1.4,3.1-1.4c1.8-0.1,3.3,1.3,3.3,3.1c0,0.1,0,0.3,0,0.4v5.5h-2V8.9
	C70,7.9,69.3,7.1,68.4,7c0,0,0,0-0.1,0h-0.2c-0.9,0.1-1.6,0.5-2.1,1.2v6.1h-2V8.9c0.1-0.9-0.5-1.8-1.4-1.9c0,0-0.1,0-0.1,0h-0.2
	c-0.9,0.1-1.8,0.6-2.3,1.4v5.9L58.1,14.3L58.1,14.3z M74.7,1.5h1.9v12.8h-1.9V1.5z M15.4,0h-0.2L0,1.6v28l15.3,9.1l15.3-9.1v-28
	L15.4,0z M28.6,28.4l-13.3,7.9L2,28.5V17l13.2,7.9v1.4l-9.1-5.4v1.4l9.1,5.5v1.5l-9.1-5.4v1.4l9.1,5.5l9.2-5.5v-5.9l4.1-2.5
	C28.6,16.8,28.6,28.5,28.6,28.4z M28.6,15.3l-3.6,2.1l-1.7,1l-8-4.8V15l6.8,4.1H22l-0.1,0.1l-1,0.6l-5.6-3.4v1.4l4.4,2.6l-1,0.7
	l-3.4-2v1.4l2.2,1.3l-2.3,1.4L2.1,15.4l13.2-7.9L28.6,15.3z M28.6,13.9L15.2,6L2,13.9V3.4L15.3,2l13.3,1.4L28.6,13.9L28.6,13.9z"/>
</svg>
